<svg width="80" height="85" viewBox="0 0 80 85" fill="none" xmlns="http://www.w3.org/2000/svg">
<path d="M77.9167 5.66667H68V1.41667C68 0.63325 67.3667 0 66.5833 0H56.6667C55.8832 0 55.25 0.63325 55.25 1.41667V5.66667H24.0833V1.41667C24.0833 0.63325 23.4501 0 22.6667 0H12.75C11.9666 0 11.3333 0.63325 11.3333 1.41667V5.66667H1.41667C0.63325 5.66667 0 6.29992 0 7.08333V22.6667V83.5833C0 84.3667 0.63325 85 1.41667 85H77.9167C78.7001 85 79.3333 84.3667 79.3333 83.5833V22.6667V7.08333C79.3333 6.29992 78.7001 5.66667 77.9167 5.66667ZM58.0833 2.83333H65.1667V7.08333V11.3333H58.0833V7.08333V2.83333ZM14.1667 2.83333H21.25V7.08333V11.3333H14.1667V7.08333V2.83333ZM2.83333 8.5H11.3333V12.75C11.3333 13.5334 11.9666 14.1667 12.75 14.1667H22.6667C23.4501 14.1667 24.0833 13.5334 24.0833 12.75V8.5H55.25V12.75C55.25 13.5334 55.8832 14.1667 56.6667 14.1667H66.5833C67.3667 14.1667 68 13.5334 68 12.75V8.5H76.5V21.25H2.83333V8.5ZM2.83333 82.1667V24.0833H76.5V82.1667H2.83333Z" fill="#848282"/>
<path d="M50.9995 32.5835H41.0828H38.2495H28.3328H25.4995H12.7495V45.3335V48.1668V58.0835V60.9168V73.6668H25.4995H28.3328H38.2495H41.0828H50.9995H53.8328H66.5828V60.9168V58.0835V48.1668V45.3335V32.5835H53.8328H50.9995ZM41.0828 35.4168H50.9995V45.3335H41.0828V35.4168ZM50.9995 58.0835H41.0828V48.1668H50.9995V58.0835ZM28.3328 48.1668H38.2495V58.0835H28.3328V48.1668ZM28.3328 35.4168H38.2495V45.3335H28.3328V35.4168ZM15.5828 35.4168H25.4995V45.3335H15.5828V35.4168ZM15.5828 48.1668H25.4995V58.0835H15.5828V48.1668ZM25.4995 70.8335H15.5828V60.9168H25.4995V70.8335ZM38.2495 70.8335H28.3328V60.9168H38.2495V70.8335ZM50.9995 70.8335H41.0828V60.9168H50.9995V70.8335ZM63.7495 70.8335H53.8328V60.9168H63.7495V70.8335ZM63.7495 58.0835H53.8328V48.1668H63.7495V58.0835ZM63.7495 35.4168V45.3335H53.8328V35.4168H63.7495Z" fill="#FDBE15"/>
</svg>
