<svg width="74" height="85" viewBox="0 0 74 85" fill="none" xmlns="http://www.w3.org/2000/svg">
<path d="M70.9758 14.6396L45.0266 0.588012C42.565 -0.745348 39.1803 0.280313 37.8469 2.7419L22.6671 30.9476H4.20521C1.84619 30.9476 0 32.7938 0 35.1528V42.5376V80.7948C0 83.1538 1.84619 85 4.20521 85H63.1808C65.5398 85 67.386 83.1538 67.386 80.7948V70.1279H69.1296C70.0527 70.1279 70.7707 69.4099 70.7707 68.4868V56.2815C70.7707 55.3584 70.0527 54.6404 69.1296 54.6404H67.386V42.6401C67.386 40.6914 65.9501 38.9478 64.1039 38.5375L73.1297 21.8192C74.4631 19.2551 73.54 16.0755 70.9758 14.6396ZM52.5139 8.38304L36.3084 38.4349H31.693L49.0266 6.53685L52.5139 8.38304ZM40.8213 4.2804C41.3342 3.3573 42.565 2.94703 43.4881 3.45987L46.0522 4.89579L28.0006 38.4349H22.3594L40.8213 4.2804ZM3.17955 35.0502C3.17955 34.7425 3.58982 34.2297 4.10265 34.2297H20.8209L18.5645 38.3324H4.10265C3.79495 38.3324 3.48725 38.3324 3.17955 38.4349V35.0502ZM64.0013 80.7948C64.0013 81.3076 63.591 81.7179 63.0782 81.7179H4.10265C3.58982 81.7179 3.17955 81.3076 3.17955 80.7948V42.6401C3.17955 42.1273 3.58982 41.7171 4.10265 41.7171H19.5901H26.1544H38.1546H61.232H62.9756C63.4885 41.7171 63.8987 42.1273 63.8987 42.6401V54.6404H57.6422C54.8729 54.6404 52.719 56.8968 52.719 59.5636V65.2047C52.719 67.974 54.9755 70.1279 57.6422 70.1279H64.0013V80.7948ZM67.2834 57.9225H67.386V66.8458H67.2834H57.6422C56.7191 66.8458 56.0011 66.1278 56.0011 65.2047V59.5636C56.0011 58.6405 56.7191 57.9225 57.6422 57.9225H67.2834ZM70.1553 20.1782L60.3089 38.4349H40.0008L55.3857 10.0241L69.3347 17.614C70.3604 18.0243 70.6681 19.2551 70.1553 20.1782Z" fill="#848282"/>
<path d="M63.8986 18.6393L63.0781 18.2291C61.0268 17.1009 58.2575 17.9214 57.1292 19.9727L56.1036 21.9215C55.5908 22.9471 55.3856 24.1779 55.7959 25.3061C56.1036 26.4344 56.9241 27.3575 57.9498 27.8703L58.7703 28.2806C59.3857 28.5883 60.1037 28.7934 60.8216 28.7934C62.4627 28.7934 63.8986 27.8703 64.7191 26.5369L65.7448 24.5882C66.7705 22.4343 65.9499 19.7676 63.8986 18.6393ZM62.7704 23.0497L61.7447 24.9984C61.437 25.5113 60.7191 25.7164 60.2062 25.4087L59.3857 24.8959C59.1806 24.7933 58.9754 24.4856 58.8729 24.2805C58.7703 23.9728 58.7703 23.6651 58.9754 23.46L60.0011 21.5112C60.2062 21.2035 60.6165 20.8958 61.0268 20.8958C61.2319 20.8958 61.3345 20.8958 61.5396 20.9984L62.3601 21.4086C62.7704 21.8189 62.9755 22.4343 62.7704 23.0497Z" fill="#FDBE15"/>
</svg>
