<svg width="86" height="85" viewBox="0 0 86 85" fill="none" xmlns="http://www.w3.org/2000/svg">
<path d="M65.2781 0H20.0989C16.2065 0 13.0397 3.17758 13.0397 7.08333V51.9038L6.30661 60.01C6.09624 60.265 5.98047 60.5852 5.98047 60.9167V85H8.80417V61.4295L13.0397 56.3295V69.4167C13.0397 69.989 13.3828 70.5061 13.9108 70.7257C14.4389 70.9453 15.0445 70.8234 15.4497 70.4183L21.0971 64.7516C21.3626 64.4867 21.5108 64.1254 21.5108 63.75V54.5417C21.5108 53.3701 22.461 52.4167 23.6286 52.4167C24.7962 52.4167 25.7463 53.3701 25.7463 54.5417V75.9135L20.5126 81.1651C20.2472 81.43 20.0989 81.7913 20.0989 82.1667V85H22.9226V82.7532L28.1564 77.5016C28.4218 77.2367 28.57 76.8754 28.57 76.5V75.0833H65.2781C69.1706 75.0833 72.3373 71.9058 72.3373 68V7.08333C72.3373 3.17758 69.1706 0 65.2781 0ZM69.5136 68C69.5136 70.3432 67.6133 72.25 65.2781 72.25H28.57V66.5833H69.5136V68ZM69.5136 63.75H28.57V54.5417C28.57 54.2017 28.5347 53.8688 28.4698 53.5486L38.453 51.0439L48.3359 53.5231V59.5C48.3359 60.282 48.967 60.9167 49.7478 60.9167H65.2781C66.0588 60.9167 66.6899 60.282 66.6899 59.5V51H63.8662V58.0833H51.1596V52.4167V48.1667V46.75H58.2188V43.9167H49.7478C48.967 43.9167 48.3359 44.5513 48.3359 45.3333V45.6648L44.1004 43.1148V38.25H56.807C57.5878 38.25 58.2188 37.6153 58.2188 36.8333V32.5833C58.2188 32.0039 57.8673 31.484 57.3308 31.2672L44.1004 25.9576V19.8333C44.1004 16.7082 41.5675 14.1667 38.453 14.1667C35.3384 14.1667 32.8056 16.7082 32.8056 19.8333V25.9576L19.5752 31.2687C19.0387 31.484 18.6871 32.0039 18.6871 32.5833V36.8333C18.6871 37.6153 19.3182 38.25 20.0989 38.25H32.8056V43.1148L26.4311 46.9526C26.0075 47.2076 25.7463 47.6694 25.7463 48.1667V50.0806C25.1025 49.7718 24.3896 49.5833 23.6286 49.5833C20.9037 49.5833 18.6871 51.8075 18.6871 54.5417V63.1635L15.8634 65.9968V11.3333H69.5136V63.75ZM34.2174 35.4167H21.5108V33.5424L34.7412 28.2313C35.2777 28.016 35.6293 27.4961 35.6293 26.9167V19.8333C35.6293 18.2707 36.8957 17 38.453 17C40.0102 17 41.2767 18.2707 41.2767 19.8333V26.9167C41.2767 27.4961 41.6282 28.016 42.1647 28.2328L55.3952 33.5424V35.4167H42.6885C41.9078 35.4167 41.2767 36.0513 41.2767 36.8333V43.9167C41.2767 44.4139 41.5379 44.8758 41.9614 45.1308L48.3359 48.9685V50.6019L38.7946 48.2092C38.6831 48.1808 38.5673 48.1667 38.453 48.1667C38.3386 48.1667 38.2228 48.1808 38.1113 48.2092L28.57 50.6019V48.9685L34.9445 45.1308C35.3681 44.8758 35.6293 44.4139 35.6293 43.9167V36.8333C35.6293 36.0513 34.9982 35.4167 34.2174 35.4167ZM69.5136 8.5H15.8634V7.08333C15.8634 4.74017 17.7638 2.83333 20.0989 2.83333H65.2781C67.6133 2.83333 69.5136 4.74017 69.5136 7.08333V8.5Z" fill="#848282"/>
<path d="M79.3974 28.3333H76.5737V31.1666H79.3974V28.3333Z" fill="#848282"/>
<path d="M85.0444 28.3333H82.2207V31.1666H85.0444V28.3333Z" fill="#848282"/>
<path d="M85.0444 22.6663H82.2207V25.4996H85.0444V22.6663Z" fill="#848282"/>
<path d="M85.0444 34.0002H82.2207V36.8336H85.0444V34.0002Z" fill="#848282"/>
<path d="M8.80417 28.3333H5.98047V31.1666H8.80417V28.3333Z" fill="#848282"/>
<path d="M3.15719 28.3333H0.333496V31.1666H3.15719V28.3333Z" fill="#848282"/>
<path d="M3.15719 34.0002H0.333496V36.8336H3.15719V34.0002Z" fill="#848282"/>
<path d="M3.15719 22.6663H0.333496V25.4996H3.15719V22.6663Z" fill="#848282"/>
<path d="M64.2801 44.3318L56.8072 51.8302L54.9817 49.9985L52.9854 52.0016L55.809 54.835C56.0844 55.1112 56.4458 55.25 56.8072 55.25C57.1687 55.25 57.5301 55.1112 57.8054 54.835L66.2765 46.335L64.2801 44.3318Z" fill="#848282"/>
<path d="M66.6902 14.1667H49.748V17.0001H66.6902V14.1667Z" fill="#FDBE15"/>
<path d="M66.6902 19.8337H49.748V22.6671H66.6902V19.8337Z" fill="#FDBE15"/>
<path d="M66.6903 25.4998H58.2192V28.3331H66.6903V25.4998Z" fill="#FDBE15"/>
</svg>
