<?xml version="1.0" encoding="utf-8"?>
<!-- Generator: Adobe Illustrator 26.4.1, SVG Export Plug-In . SVG Version: 6.00 Build 0)  -->
<svg version="1.1" id="Capa_1" xmlns="http://www.w3.org/2000/svg" xmlns:xlink="http://www.w3.org/1999/xlink" x="0px" y="0px"
	 viewBox="0 0 220 84" style="enable-background:new 0 0 220 84;" xml:space="preserve">
<style type="text/css">
	.st0{fill:#FFFFFF;}
	.st1{fill-rule:evenodd;clip-rule:evenodd;fill:#F9BC1C;}
	.st2{fill:#FBBD1D;}
	.st3{fill-rule:evenodd;clip-rule:evenodd;fill:#4F4C4D;}
	.st4{fill:none;stroke:#4F4C4D;stroke-width:1.7939;stroke-linecap:round;stroke-linejoin:round;stroke-miterlimit:10;}
	.st5{fill:#FFFFFF;stroke:#4F4C4D;stroke-width:1.4566;stroke-linecap:round;stroke-linejoin:round;stroke-miterlimit:10;}
	.st6{fill:#4F4C4D;}
	.st7{fill:none;stroke:#4F4C4D;stroke-width:1.4566;stroke-linecap:round;stroke-linejoin:round;stroke-miterlimit:10;}
	.st8{fill:none;stroke:#4F4C4D;stroke-width:1.4156;stroke-linecap:round;stroke-linejoin:round;stroke-miterlimit:10;}
	.st9{fill:#FFFFFF;stroke:#4F4C4D;stroke-width:1.1495;stroke-linecap:round;stroke-linejoin:round;stroke-miterlimit:10;}
	.st10{fill:none;stroke:#4F4C4D;stroke-width:1.1495;stroke-linecap:round;stroke-linejoin:round;stroke-miterlimit:10;}
</style>
<g>
	<g>
		<rect x="108.4" y="22.9" class="st0" width="10.3" height="51.7"/>
		<rect x="91.6" y="3.3" class="st1" width="12.8" height="5.6"/>
		<path class="st2" d="M111.3,75.2H79c-1,0-1.9-0.8-1.9-1.9V24.8c0-1,0.8-1.9,1.9-1.9h32.3c1,0,1.9,0.8,1.9,1.9v48.5
			C113.2,74.4,112.3,75.2,111.3,75.2"/>
		<path class="st3" d="M115.2,83.1c-1.5,0-2.8-1.3-2.8-2.8c0-1.5,1.3-2.8,2.8-2.8c1.5,0,2.8,1.3,2.8,2.8
			C118,81.8,116.8,83.1,115.2,83.1 M85.2,80.3c0,1.5-1.3,2.8-2.8,2.8c-1.5,0-2.8-1.3-2.8-2.8c0-1.5,1.3-2.8,2.8-2.8
			C84,77.5,85.2,78.7,85.2,80.3 M79.6,24.1H81V28h-2.7v-2.6C78.3,24.7,78.9,24.1,79.6,24.1 M78.3,70.1H81V74h-1.3
			c-0.7,0-1.3-0.6-1.3-1.3V70.1z M116.4,74h-1.3v-3.9h2.7v2.6C117.7,73.4,117.1,74,116.4,74 M106,24.1h6.4V28c0,1.4,1.2,2.6,2.7,2.6
			h2.7v36.8h-2.7c-1.5,0-2.7,1.2-2.7,2.6V74H83.6v-3.9c0-1.4-1.2-2.6-2.7-2.6h-2.7V30.7H81c1.5,0,2.7-1.2,2.7-2.6v-3.9H90H106z
			 M92.7,21.4h10.6V9.6H92.7V21.4z M94,4.4h8c0.7,0,1.3,0.6,1.3,1.3V7H92.7V5.7C92.7,4.9,93.3,4.4,94,4.4 M117.7,25.4V28h-2.7v-3.9
			h1.3C117.1,24.1,117.7,24.7,117.7,25.4 M106,21.4V5.7c0-2.2-1.8-3.9-4-3.9h-8c-2.2,0-4,1.8-4,3.9v15.8H79.6c-2.2,0-4,1.8-4,3.9
			v47.3c0,1.5,0.8,3.3,3.2,4.1h37.6c3.2-0.8,4-2.6,4-4.1V25.4c0-2.2-1.8-3.9-4-3.9H106z"/>
		<line class="st4" x1="91.5" y1="33" x2="91.5" y2="68"/>
		<line class="st4" x1="85.7" y1="33" x2="85.7" y2="68"/>
		<line class="st4" x1="105.3" y1="33" x2="105.3" y2="68"/>
		<line class="st4" x1="111.2" y1="33" x2="111.2" y2="68"/>
		<g>
			<polygon class="st5" points="106.5,29.6 109,29 112.4,30.9 114.7,41.8 106.6,43.5 104.7,32.9 			"/>
			<circle class="st6" cx="108.4" cy="31.9" r="1"/>
			<path class="st7" d="M108.4,31.9c-2.1-1.5-4-6.9-0.9-8.5"/>
		</g>
	</g>
	<g>
		<rect x="134.9" y="35.5" class="st0" width="8.2" height="40.8"/>
		<rect x="121.7" y="20.1" class="st1" width="10.1" height="4.4"/>
		<path class="st2" d="M137.2,76.9h-25.5c-0.8,0-1.5-0.7-1.5-1.5V37.1c0-0.8,0.7-1.5,1.5-1.5h25.5c0.8,0,1.5,0.7,1.5,1.5v38.3
			C138.7,76.2,138,76.9,137.2,76.9"/>
		<path class="st3" d="M140.3,83.1c-1.2,0-2.2-1-2.2-2.2c0-1.2,1-2.2,2.2-2.2c1.2,0,2.2,1,2.2,2.2C142.5,82.1,141.5,83.1,140.3,83.1
			 M116.6,80.8c0,1.2-1,2.2-2.2,2.2c-1.2,0-2.2-1-2.2-2.2c0-1.2,1-2.2,2.2-2.2C115.6,78.6,116.6,79.6,116.6,80.8 M112.2,36.5h1v3.1
			h-2.1v-2.1C111.1,37,111.6,36.5,112.2,36.5 M111.1,72.8h2.1v3.1h-1c-0.6,0-1-0.5-1-1V72.8z M141.2,75.9h-1v-3.1h2.1v2.1
			C142.3,75.5,141.8,75.9,141.2,75.9 M133,36.5h5.1v3.1c0,1.1,0.9,2.1,2.1,2.1h2.1v29h-2.1c-1.2,0-2.1,0.9-2.1,2.1v3.1h-22.7v-3.1
			c0-1.1-0.9-2.1-2.1-2.1h-2.1v-29h2.1c1.2,0,2.1-0.9,2.1-2.1v-3.1h5.1H133z M122.5,34.4h8.4v-9.3h-8.4V34.4z M123.6,21h6.3
			c0.6,0,1,0.5,1,1v1h-8.4v-1C122.5,21.4,123,21,123.6,21 M142.3,37.6v2.1h-2.1v-3.1h1C141.8,36.5,142.3,37,142.3,37.6 M133,34.4V22
			c0-1.7-1.4-3.1-3.1-3.1h-6.3c-1.7,0-3.1,1.4-3.1,3.1v12.4h-8.2c-1.7,0-3.1,1.4-3.1,3.1v37.3c0,1.2,0.6,2.6,2.5,3.3h29.6
			c2.5-0.6,3.2-2.1,3.2-3.3V37.6c0-1.7-1.4-3.1-3.1-3.1H133z"/>
		<line class="st8" x1="121.5" y1="43.6" x2="121.5" y2="71.2"/>
		<line class="st8" x1="117" y1="43.6" x2="117" y2="71.2"/>
		<line class="st8" x1="132.5" y1="43.6" x2="132.5" y2="71.2"/>
		<line class="st8" x1="137.1" y1="43.6" x2="137.1" y2="71.2"/>
		<g>
			<polygon class="st9" points="133.4,40.9 135.4,40.4 138,41.9 139.9,50.5 133.5,51.8 132,43.4 			"/>
			<circle class="st6" cx="134.9" cy="42.7" r="0.8"/>
			<path class="st10" d="M134.9,42.7c-1.7-1.2-3.2-5.4-0.7-6.7"/>
		</g>
	</g>
</g>
</svg>
