<?xml version="1.0" encoding="utf-8"?>
<!-- Generator: Adobe Illustrator 26.5.0, SVG Export Plug-In . SVG Version: 6.00 Build 0)  -->
<svg version="1.1" id="Capa_1" xmlns="http://www.w3.org/2000/svg" xmlns:xlink="http://www.w3.org/1999/xlink" x="0px" y="0px"
	 viewBox="0 0 220 84" style="enable-background:new 0 0 220 84;" xml:space="preserve">
<style type="text/css">
	.st0{fill:#FFFFFF;}
	.st1{fill:#4F4C4D;}
	.st2{fill:#FDBE15;}
	.st3{fill:#FBBD19;}
</style>
<g>
	<g>
		<path class="st0" d="M135.1,44.3L175.7,21l2.9,4.8c0,0-2.5,5-1,7.4c1.6,2.5,7.1,2.3,7.1,2.3l2.6,5.2L147,63.9c0,0-1.5-2.3-3.2-5.2
			c-1-1.7,3.9-2.9,0.6-7.1c-3.2-4.2-5.1-0.9-6.1-2.6C136.6,46.3,135.1,44.3,135.1,44.3z"/>
	</g>
	<g>
		<path class="st1" d="M179.7,26.7c0.4-0.2,0.5-0.7,0.3-1.1l-2.5-4.4c-0.7-1.2-2.2-1.5-3.4-0.9l-38.5,22.2c-1.2,0.6-1.6,2.2-0.9,3.4
			l2.5,4.4c0.2,0.4,0.7,0.5,1.1,0.3c2.1-1.2,4.7-0.5,5.9,1.6c1.2,2.1,0.5,4.7-1.6,5.9c-0.4,0.2-0.5,0.7-0.3,1.1l2.5,4.4
			c0.7,1.2,2.2,1.5,3.4,0.9l38.5-22.2c1.2-0.7,1.5-2.2,0.9-3.4l-2.5-4.4c-0.2-0.4-0.7-0.5-1.1-0.3c-2.1,1.2-4.7,0.5-5.9-1.6
			C176.9,30.6,177.7,27.9,179.7,26.7z M176.8,33.4c1.5,2.6,4.7,3.6,7.4,2.6l2.2,3.8c0.2,0.4,0.1,1-0.3,1.3l-7.4,4.3c0,0,0,0,0-0.1
			l-0.9-1.5c-0.2-0.4-0.7-0.5-1.1-0.3c-0.3,0.2-0.5,0.7-0.3,1.1l0.9,1.5c0,0,0,0,0,0.1l-29.7,17.1c-0.4,0.2-1,0.1-1.3-0.3l-2.2-3.8
			c2.3-1.8,3-5,1.5-7.6c-1.5-2.6-4.7-3.6-7.4-2.6l-2.2-3.8c-0.2-0.4-0.1-1,0.3-1.3L166,26.7c0,0,0,0,0,0.1l0.9,1.5
			c0.2,0.4,0.7,0.5,1.1,0.3c0.4-0.2,0.5-0.7,0.3-1.1l-0.8-1.4c0,0,0,0,0-0.1l7.4-4.3c0.4-0.2,1-0.1,1.3,0.3l2.2,3.8
			C176,27.5,175.3,30.8,176.8,33.4z"/>
	</g>
	<g>
		<path class="st1" d="M171.6,35c-0.3,0.2-0.4,0.7-0.2,1.1l0.9,1.6c0.2,0.4,0.7,0.6,1,0.4c0.3-0.2,0.4-0.7,0.2-1.1l-0.9-1.6
			C172.4,35,171.9,34.8,171.6,35z"/>
	</g>
	<g>
		<path class="st1" d="M168.6,29.9c-0.3,0.2-0.4,0.7-0.2,1.1l0.9,1.6c0.2,0.4,0.7,0.6,1,0.4c0.3-0.2,0.4-0.7,0.2-1.1l-0.9-1.6
			C169.5,29.9,169,29.7,168.6,29.9z"/>
	</g>
	<g>
		<path class="st1" d="M174.2,39.2c-0.4,0.2-0.5,0.7-0.2,1.2l1,1.7c0.3,0.5,0.7,0.6,1.1,0.4c0.4-0.2,0.5-0.7,0.2-1.2l-1-1.7
			C175.1,39.2,174.5,39.1,174.2,39.2z"/>
	</g>
	<g>
		<path class="st2" d="M166.4,39.6c0.5,0.9-0.1,1.9-0.7,2.3l-2.1,1.2l-1.1,7.6c-0.1,0.3-0.4,0.6-0.5,0.7c-0.7,0.4-1.6,0-1.7-0.9
			l-0.4-5.5l-3.3,1.9l-0.3,2.1c-0.1,0.3-0.1,0.3-0.2,0.4c-0.3,0.2-0.7,0.1-0.9-0.2l-2.7-4.7c-0.2-0.3-0.1-0.7,0.2-0.9
			c0.2-0.1,0.3-0.2,0.5,0l2,0.7l3.5-2l-5-2.9c-0.7-0.5-0.6-1.5,0.1-1.9c0.3-0.2,0.7-0.1,0.9-0.1l7.2,2.8l2.1-1.2
			C164.8,38.8,166,38.8,166.4,39.6z"/>
	</g>
</g>
<g>
	<polygon class="st0" points="98.1,34.8 111,10.3 131,21 122.8,34.8 	"/>
	<polygon class="st0" points="87.1,30.5 99,30.5 97.6,34.3 87.1,34.3 	"/>
	<polygon class="st3" points="104.2,33.3 115.7,12.6 119,14.8 107.6,35.1 	"/>
	<rect x="86.1" y="35.3" class="st0" width="40" height="26.7"/>
	<path class="st3" d="M86.7,38.5h36.4c1.8,0,3.3,1.5,3.3,3.3v19.6H86.7V38.5z"/>
	<rect x="119.5" y="44.8" class="st0" width="9.5" height="7.6"/>
	<path class="st1" d="M129.2,22.2l-6.2,11.5h-12.8l9.7-17.8l8.8,4.8C129.4,20.8,129.6,21.6,129.2,22.2z M127.4,45.9L127.4,45.9
		l0.1,5.6h-0.1h-6.1c-0.6,0-1-0.5-1-1v-3.5c0-0.6,0.5-1,1-1H127.4z M125.4,60.3c0,0.3-0.3,0.6-0.6,0.6h-37c-0.3,0-0.6-0.3-0.6-0.6
		v-24c0-0.3,0.3-0.6,0.6-0.6h9.7h4.1h7.5h14.5h1.1c0.3,0,0.6,0.3,0.6,0.6v7.5h-3.9c-1.7,0-3.1,1.4-3.1,3.1v3.5
		c0,1.7,1.4,3.1,3.1,3.1h4V60.3z M87.2,31.5c0-0.2,0.3-0.5,0.6-0.5h10.5l-1.4,2.6h-9.1c-0.2,0-0.4,0-0.6,0.1V31.5z M110.8,12.2
		c0.3-0.6,1.1-0.8,1.7-0.5l1.6,0.9l-11.3,21.1h-3.5L110.8,12.2z M118.2,14.8L108,33.7h-2.9l10.9-20L118.2,14.8z M129.8,18.7
		l-16.3-8.8c-1.5-0.8-3.7-0.2-4.5,1.4L99.4,29H87.8c-1.5,0-2.6,1.2-2.6,2.6v4.6v24c0,1.5,1.2,2.6,2.6,2.6h37c1.5,0,2.6-1.2,2.6-2.6
		v-6.7h1.1c0.6,0,1-0.5,1-1v-7.7c0-0.6-0.5-1-1-1h-1.1v-7.5c0-1.2-0.9-2.3-2.1-2.6l5.7-10.5C132,21.6,131.4,19.6,129.8,18.7z"/>
	<path class="st1" d="M124.6,24l-0.6,1.2c-0.2,0.3-0.6,0.5-1,0.3l-0.5-0.3c-0.1-0.1-0.3-0.3-0.3-0.4c-0.1-0.2-0.1-0.4,0.1-0.5
		l0.6-1.2c0.1-0.2,0.4-0.4,0.6-0.4c0.1,0,0.2,0,0.3,0.1l0.5,0.3C124.6,23.2,124.7,23.6,124.6,24z M125.3,21.2l-0.5-0.3
		c-1.3-0.7-3-0.2-3.7,1.1l-0.6,1.2c-0.3,0.6-0.5,1.4-0.2,2.1c0.2,0.7,0.7,1.3,1.4,1.6l0.5,0.3c0.4,0.2,0.8,0.3,1.3,0.3
		c1,0,1.9-0.6,2.4-1.4l0.6-1.2C127.1,23.6,126.6,21.9,125.3,21.2z"/>
</g>
<g>
	<g>
		<g id="XMLID_00000158736307398262745720000018388107258236772765_">
			<path class="st3" d="M63.9,33.6c0.9-1.1,2.2-1.7,3.9-1.9c1.7-0.2,3.1,0.1,4.3,1c1.1,0.8,1.8,2.2,2,4.1c0.2,1.9-0.1,3.3-1,4.4
				c-0.9,1.1-2.2,1.7-3.9,1.9c-1.7,0.2-3.1-0.1-4.3-1c-1.1-0.8-1.8-2.2-2-4C62.6,36.1,62.9,34.6,63.9,33.6z M68.8,40.2
				c0.7-0.1,1.3-0.5,1.7-1.1c0.3-0.5,0.4-1.2,0.3-2.1c-0.1-0.8-0.3-1.5-0.8-1.9c-0.5-0.5-1.2-0.8-1.9-0.7c-0.5,0.1-2.3,0.5-1.9,3.2
				C66.5,40.3,68.2,40.3,68.8,40.2z"/>
			<polygon class="st3" points="66.2,18.4 56.4,44.1 50.8,44.8 60.7,19.1 			"/>
			<path class="st3" d="M46.3,26.1c0.3,2.7,2.1,2.7,2.6,2.6c1-0.1,1.5-0.7,1.7-1.1c0.3-0.5,0.4-1.2,0.3-2.1c-0.1-0.9-0.4-1.5-0.8-2
				c-0.5-0.5-1.2-0.8-1.9-0.7C47.5,23,46,23.5,46.3,26.1z M44,22.1c0.9-1.1,2.2-1.7,4-1.9c1.7-0.2,3.1,0.1,4.3,1
				c1.1,0.8,1.8,2.2,2,4.1c0.2,1.9-0.1,3.3-1,4.4c-0.9,1.1-2.2,1.7-3.9,1.9c-1.7,0.2-3.2-0.1-4.3-1c-1.1-0.8-1.8-2.1-2-4
				C42.7,24.6,43,23.2,44,22.1z"/>
		</g>
	</g>
	<g>
		<g>
			<path class="st1" d="M67.6,44.3c-2.2,0.3-4.1-0.2-5.7-1.3c-1.6-1.2-2.5-3-2.8-5.4c0,0,0-0.1,0-0.1l-3,7.9L46,46.5l5.8-15.2
				c-1.1,0.8-2.5,1.3-4.1,1.5c-2.2,0.3-4.2-0.2-5.7-1.3c-1.6-1.1-2.5-3-2.8-5.4c-0.3-2.4,0.2-4.4,1.5-5.9c1.3-1.5,3-2.4,5.3-2.6
				c2.2-0.3,4.1,0.2,5.7,1.3l0,0c1.6,1.2,2.5,3,2.8,5.4c0,0,0,0.1,0,0.1l3-7.9l10.1-1.2l-5.8,15.2c1.1-0.8,2.5-1.4,4.1-1.6
				c2.2-0.3,4.2,0.2,5.7,1.3l0,0c1.6,1.2,2.5,3,2.8,5.4c0.3,2.4-0.2,4.4-1.5,5.9C71.6,43.1,69.9,44,67.6,44.3z M66.1,31
				c-1.7,0.2-3,0.8-3.9,1.9c-0.9,1.1-1.3,2.5-1,4.4c0.2,1.9,0.9,3.2,2,4c1.2,0.9,2.6,1.2,4.3,1c1.7-0.2,3-0.8,3.9-1.9
				c0.9-1.1,1.2-2.5,1-4.4c-0.2-1.9-0.9-3.2-2-4.1l0,0C69.2,31.1,67.8,30.8,66.1,31z M49.1,44.1l5.6-0.7l9.9-25.7l-5.6,0.7
				L49.1,44.1z M46.2,19.5c-1.7,0.2-3,0.8-4,1.9c-0.9,1.1-1.3,2.5-1,4.4c0.2,1.9,0.9,3.2,2,4c1.2,0.8,2.6,1.2,4.3,0.9
				c1.7-0.2,3-0.8,3.9-1.9c0.9-1.1,1.2-2.5,1-4.4c-0.2-1.9-0.9-3.2-2-4.1C49.3,19.6,47.9,19.3,46.2,19.5z M67.1,39.5
				c-0.5,0.1-2.3,0.1-2.6-2.6c-0.3-2.7,1.4-3.1,1.9-3.2c0.7-0.1,1.4,0.2,1.9,0.7c0.4,0.5,0.7,1.1,0.8,1.9c0.1,0.9,0,1.5-0.3,2.1
				C68.4,39.1,67.8,39.5,67.1,39.5z M66.6,35.7c-0.1,0-0.1,0-0.1,0c0,0-0.1,0.3-0.1,0.9c0.1,0.6,0.2,0.9,0.3,0.9c0,0,0,0,0.1,0
				c0.1,0,0.1,0,0.2-0.1c0-0.1,0.1-0.3,0.1-0.9c-0.1-0.5-0.2-0.7-0.3-0.8C66.7,35.7,66.7,35.7,66.6,35.7z M47.1,28.1
				c-0.5,0.1-2.3,0.1-2.6-2.6c-0.3-2.6,1.2-3.1,1.9-3.2c0.8-0.1,1.4,0.1,1.9,0.7c0.4,0.5,0.7,1.1,0.8,2c0.1,0.8,0,1.5-0.3,2.1
				C48.6,27.4,48.1,27.9,47.1,28.1z M46.8,26.1c0,0,0,0,0.1,0c0.2,0,0.2-0.1,0.2-0.1c0-0.1,0.1-0.3,0.1-0.8
				c-0.1-0.6-0.2-0.8-0.3-0.8c0,0-0.1-0.1-0.2,0c-0.1,0.1-0.2,0.3-0.2,1C46.6,25.8,46.8,26,46.8,26.1L46.8,26.1z"/>
		</g>
	</g>
</g>
<g>
	<g>
		<g id="XMLID_00000018933208640672147730000008199873778540710317_">
			<path class="st3" d="M68.2,56.8c0.7-0.4,1.6-0.4,2.6-0.2c1,0.3,1.7,0.8,2.1,1.5c0.4,0.7,0.5,1.6,0.2,2.6
				c-0.3,1.1-0.8,1.8-1.5,2.2c-0.7,0.4-1.6,0.4-2.6,0.1c-1-0.3-1.7-0.8-2.1-1.5c-0.4-0.7-0.5-1.6-0.2-2.6
				C66.9,57.9,67.4,57.2,68.2,56.8z M69.3,61.5c0.4,0.1,0.8,0,1.2-0.2c0.3-0.2,0.5-0.6,0.6-1.1c0.1-0.5,0.1-0.9,0-1.2
				c-0.1-0.4-0.4-0.7-0.9-0.8c-0.3-0.1-1.3-0.3-1.8,1.3C68.1,61,69,61.4,69.3,61.5z"/>
			<polygon class="st3" points="72.9,49.2 61.7,60.8 58.6,59.9 69.7,48.3 			"/>
			<path class="st3" d="M60.4,48.8c-0.4,1.5,0.5,1.9,0.8,2c0.5,0.2,0.9,0,1.2-0.2c0.3-0.2,0.5-0.6,0.6-1c0.1-0.5,0.1-0.9,0-1.2
				c-0.1-0.4-0.5-0.7-0.9-0.8C61.7,47.4,60.8,47.4,60.4,48.8z M60,46.1c0.8-0.4,1.6-0.4,2.6-0.1c1,0.3,1.7,0.8,2.1,1.5
				c0.4,0.7,0.5,1.6,0.2,2.6c-0.3,1.1-0.8,1.8-1.5,2.1c-0.7,0.4-1.6,0.4-2.5,0.1c-1-0.3-1.7-0.8-2.1-1.5c-0.4-0.7-0.5-1.6-0.2-2.6
				C58.8,47.2,59.3,46.5,60,46.1z"/>
		</g>
	</g>
	<g>
		<g>
			<path class="st1" d="M67.8,63.5c-1.3-0.4-2.2-1-2.8-2c-0.6-1-0.7-2.2-0.3-3.6c0,0,0-0.1,0-0.1l-3.4,3.6l-5.7-1.6l6.6-6.9
				c-0.8,0.2-1.6,0.2-2.5-0.1c-1.3-0.4-2.2-1-2.8-2c-0.6-1-0.7-2.2-0.3-3.6c0.4-1.4,1.1-2.3,2.1-2.9c1-0.5,2.2-0.6,3.4-0.2
				c1.3,0.4,2.2,1,2.8,2l0,0c0.6,1,0.7,2.2,0.3,3.6c0,0,0,0.1,0,0.1l3.4-3.6l5.7,1.6l-6.6,6.9c0.8-0.2,1.7-0.2,2.6,0.1
				c1.3,0.4,2.2,1,2.8,2l0,0c0.6,1,0.7,2.2,0.3,3.6c-0.4,1.4-1.1,2.3-2.1,2.9C70.2,63.8,69.1,63.8,67.8,63.5z M70,55.9
				c-1-0.3-1.8-0.2-2.6,0.1c-0.7,0.4-1.2,1.1-1.6,2.1c-0.3,1.1-0.3,1.9,0.2,2.6c0.4,0.7,1.1,1.2,2.1,1.5c1,0.3,1.8,0.2,2.6-0.1
				c0.7-0.4,1.2-1.1,1.5-2.2c0.3-1.1,0.3-1.9-0.2-2.6l0,0C71.6,56.7,70.9,56.2,70,55.9z M57.8,59.2l3.1,0.9l11.1-11.6L69,47.5
				L57.8,59.2z M61.8,45.3c-1-0.3-1.8-0.2-2.6,0.1c-0.7,0.4-1.2,1.1-1.6,2.1c-0.3,1.1-0.3,1.9,0.2,2.6c0.4,0.7,1.1,1.2,2.1,1.5
				c1,0.3,1.8,0.2,2.5-0.1c0.7-0.4,1.2-1.1,1.5-2.1c0.3-1.1,0.3-1.9-0.2-2.6C63.5,46,62.8,45.5,61.8,45.3z M68.5,60.8
				c-0.3-0.1-1.3-0.5-0.8-2c0.4-1.5,1.5-1.4,1.8-1.3c0.4,0.1,0.7,0.4,0.9,0.8c0.1,0.3,0.1,0.7,0,1.2c-0.1,0.5-0.3,0.8-0.6,1.1
				C69.4,60.8,69,60.9,68.5,60.8z M69.2,58.6C69.1,58.6,69.1,58.6,69.2,58.6c-0.1,0-0.2,0.1-0.3,0.5c-0.1,0.4-0.1,0.5-0.1,0.5
				c0,0,0,0,0.1,0c0.1,0,0.1,0,0.1,0c0,0,0.1-0.1,0.2-0.5C69.3,58.9,69.3,58.7,69.2,58.6C69.2,58.6,69.2,58.6,69.2,58.6z M60.4,50.1
				c-0.3-0.1-1.2-0.5-0.8-2c0.4-1.5,1.4-1.4,1.7-1.3c0.4,0.1,0.7,0.4,0.9,0.8c0.1,0.3,0.1,0.7,0,1.2c-0.1,0.5-0.3,0.8-0.6,1
				C61.3,50.1,61,50.2,60.4,50.1z M60.7,48.9C60.7,48.9,60.7,48.9,60.7,48.9c0.1,0,0.2,0,0.2,0c0,0,0.1-0.1,0.2-0.4
				c0.1-0.3,0.1-0.5,0-0.5c0,0,0,0-0.1-0.1c-0.1,0-0.2,0.1-0.3,0.5C60.6,48.7,60.7,48.9,60.7,48.9L60.7,48.9z"/>
		</g>
	</g>
</g>
<g>
	<g>
		<g id="XMLID_00000009548869355866627220000017579545188269757069_">
			<path class="st3" d="M39.8,48.1c0.3-0.5,0.8-0.7,1.5-0.9c0.7-0.1,1.3,0,1.7,0.3c0.5,0.3,0.8,0.8,0.9,1.6c0.1,0.7,0,1.3-0.3,1.8
				c-0.3,0.5-0.8,0.7-1.5,0.9c-0.7,0.1-1.2,0-1.7-0.3c-0.5-0.3-0.8-0.8-0.9-1.6C39.3,49.2,39.4,48.6,39.8,48.1z M41.9,50.7
				c0.3-0.1,0.5-0.2,0.6-0.5c0.1-0.2,0.1-0.5,0.1-0.8c-0.1-0.3-0.2-0.6-0.4-0.8c-0.2-0.2-0.5-0.3-0.8-0.2c-0.2,0-0.9,0.2-0.7,1.3
				C41,50.8,41.7,50.7,41.9,50.7z"/>
			<polygon class="st3" points="40.4,42 37,52.5 34.8,52.9 38.2,42.4 			"/>
			<path class="st3" d="M32.6,45.6c0.2,1.1,0.9,1,1.1,1c0.4-0.1,0.6-0.3,0.7-0.5c0.1-0.2,0.1-0.5,0.1-0.8c-0.1-0.3-0.2-0.6-0.4-0.8
				c-0.2-0.2-0.5-0.3-0.8-0.2C33,44.3,32.4,44.6,32.6,45.6z M31.6,44c0.3-0.5,0.9-0.7,1.5-0.9c0.7-0.1,1.2,0,1.7,0.3
				c0.5,0.3,0.8,0.8,0.9,1.6c0.1,0.7,0,1.3-0.3,1.8c-0.3,0.5-0.8,0.7-1.5,0.9c-0.7,0.1-1.3,0-1.7-0.3c-0.5-0.3-0.8-0.8-0.9-1.6
				C31.1,45.1,31.2,44.5,31.6,44z"/>
		</g>
	</g>
	<g>
		<g>
			<path class="st1" d="M41.6,52.3c-0.9,0.2-1.7,0-2.3-0.4c-0.7-0.4-1.1-1.1-1.3-2.1c0,0,0,0,0-0.1L37,53l-4,0.7l2-6.2
				c-0.4,0.4-1,0.6-1.6,0.7c-0.9,0.2-1.7,0-2.3-0.4c-0.7-0.4-1.1-1.1-1.3-2.1c-0.2-1,0-1.8,0.5-2.4c0.5-0.6,1.2-1,2-1.2
				c0.9-0.2,1.7,0,2.3,0.4l0,0c0.7,0.4,1.1,1.1,1.3,2.1c0,0,0,0,0,0.1l1-3.2l4-0.7l-2,6.2c0.4-0.4,1-0.6,1.6-0.7
				c0.9-0.2,1.7,0,2.3,0.4l0,0c0.7,0.4,1.1,1.1,1.2,2.1c0.2,1,0,1.8-0.4,2.4C43.1,51.8,42.4,52.2,41.6,52.3z M40.6,47.1
				c-0.7,0.1-1.2,0.4-1.5,0.9c-0.3,0.5-0.4,1-0.3,1.8c0.1,0.7,0.4,1.3,0.9,1.6c0.5,0.3,1.1,0.4,1.7,0.3c0.7-0.1,1.2-0.4,1.5-0.9
				c0.3-0.5,0.4-1,0.3-1.8c-0.1-0.8-0.4-1.3-0.9-1.6l0,0C41.9,47,41.3,46.9,40.6,47.1z M34.1,52.7l2.2-0.4l3.3-10.5l-2.2,0.4
				L34.1,52.7z M32.4,43c-0.7,0.1-1.2,0.4-1.5,0.9c-0.3,0.5-0.4,1-0.3,1.8c0.1,0.7,0.4,1.3,0.9,1.6c0.5,0.3,1.1,0.4,1.7,0.3
				c0.7-0.1,1.2-0.4,1.5-0.9c0.3-0.4,0.4-1,0.3-1.8c-0.1-0.8-0.4-1.3-0.9-1.6C33.6,42.9,33.1,42.8,32.4,43z M41.2,50.5
				c-0.2,0-0.9,0.1-1.1-1c-0.2-1.1,0.5-1.3,0.7-1.3c0.3-0.1,0.6,0,0.8,0.2c0.2,0.2,0.3,0.4,0.4,0.8c0.1,0.3,0,0.6-0.1,0.8
				C41.7,50.2,41.5,50.4,41.2,50.5z M40.9,48.9C40.9,48.9,40.9,49,40.9,48.9c-0.1,0-0.1,0.1-0.1,0.4c0,0.3,0.1,0.3,0.1,0.3
				c0,0,0,0,0.1,0c0,0,0.1,0,0.1,0c0,0,0-0.1,0-0.3C41.1,49.1,41,49,40.9,48.9C41,48.9,41,48.9,40.9,48.9z M33,46.4
				c-0.2,0-0.9,0.1-1.1-1c-0.2-1,0.4-1.3,0.7-1.3c0.3-0.1,0.6,0,0.8,0.2c0.2,0.2,0.3,0.4,0.4,0.8c0.1,0.3,0,0.6-0.1,0.8
				C33.5,46.1,33.4,46.3,33,46.4z M32.8,45.6C32.8,45.6,32.8,45.6,32.8,45.6c0.1,0,0.1,0,0.1,0c0,0,0-0.1,0-0.3
				c0-0.2-0.1-0.3-0.1-0.3c0,0,0,0-0.1,0c-0.1,0-0.1,0.1,0,0.4C32.7,45.5,32.8,45.6,32.8,45.6L32.8,45.6z"/>
		</g>
	</g>
</g>
</svg>
