<?xml version="1.0" encoding="utf-8"?>
<!-- Generator: Adobe Illustrator 26.0.1, SVG Export Plug-In . SVG Version: 6.00 Build 0)  -->
<svg version="1.1" id="Capa_1" xmlns="http://www.w3.org/2000/svg" xmlns:xlink="http://www.w3.org/1999/xlink" x="0px" y="0px"
	 viewBox="0 0 220 84" style="enable-background:new 0 0 220 84;" xml:space="preserve">
<style type="text/css">
	.st0{fill:#FFFFFF;}
	.st1{fill-rule:evenodd;clip-rule:evenodd;fill:#F9BC1C;}
	.st2{fill:#FBBD1D;}
	.st3{fill-rule:evenodd;clip-rule:evenodd;fill:#4F4C4D;}
	.st4{fill:none;stroke:#4F4C4D;stroke-width:1.0905;stroke-linecap:round;stroke-linejoin:round;stroke-miterlimit:10;}
	.st5{fill:#FFFFFF;stroke:#4F4C4D;stroke-width:0.8855;stroke-linecap:round;stroke-linejoin:round;stroke-miterlimit:10;}
	.st6{fill:#4F4C4D;}
	.st7{fill:none;stroke:#4F4C4D;stroke-width:0.8855;stroke-linecap:round;stroke-linejoin:round;stroke-miterlimit:10;}
	.st8{fill:#FDBE15;stroke:#4F4C4D;stroke-width:1.9876;}
	.st9{opacity:0.4;fill:#4F4C4D;}
	.st10{fill:#FBBC0B;}
</style>
<g>
	<g>
		<rect x="118.65" y="35.31" class="st0" width="6.29" height="31.43"/>
		<rect x="108.45" y="23.44" class="st1" width="7.77" height="3.4"/>
		<path class="st2" d="M120.42,67.15h-19.63c-0.62,0-1.13-0.5-1.13-1.13V36.51c0-0.62,0.5-1.13,1.13-1.13h19.63
			c0.62,0,1.13,0.5,1.13,1.13v29.51C121.55,66.64,121.04,67.15,120.42,67.15"/>
		<path class="st3" d="M122.8,71.91c-0.94,0-1.7-0.76-1.7-1.7s0.76-1.7,1.7-1.7s1.7,0.76,1.7,1.7
			C124.5,71.15,123.73,71.91,122.8,71.91 M104.55,70.21c0,0.94-0.76,1.7-1.7,1.7s-1.7-0.76-1.7-1.7s0.76-1.7,1.7-1.7
			S104.55,69.27,104.55,70.21 M101.15,36.06h0.81v2.4h-1.61v-1.6C100.35,36.41,100.71,36.06,101.15,36.06 M100.35,64.03h1.61v2.4
			h-0.81c-0.44,0-0.81-0.36-0.81-0.8V64.03z M123.52,66.43h-0.81v-2.4h1.61v1.59C124.32,66.07,123.96,66.43,123.52,66.43
			 M117.18,36.06h3.92v2.4c0,0.88,0.72,1.59,1.61,1.59h1.61v22.38h-1.61c-0.89,0-1.61,0.72-1.61,1.59v2.4h-17.53v-2.4
			c0-0.88-0.72-1.59-1.61-1.59h-1.61V40.06h1.61c0.89,0,1.61-0.72,1.61-1.59v-2.4h3.91C107.49,36.06,117.18,36.06,117.18,36.06z
			 M109.11,34.46h6.45v-7.19h-6.45V34.46z M109.91,24.07h4.84c0.44,0,0.81,0.36,0.81,0.8v0.8h-6.45v-0.8
			C109.11,24.43,109.47,24.07,109.91,24.07 M124.32,36.86v1.6h-1.61v-2.4h0.81C123.96,36.06,124.32,36.41,124.32,36.86
			 M117.18,34.46v-9.58c0-1.32-1.09-2.4-2.42-2.4h-4.84c-1.33,0-2.42,1.08-2.42,2.4v9.59h-6.34c-1.33,0-2.42,1.08-2.42,2.4v28.77
			c0,0.9,0.48,2.02,1.94,2.51h22.83c1.94-0.48,2.42-1.6,2.42-2.51V36.87c0-1.32-1.09-2.4-2.42-2.4L117.18,34.46L117.18,34.46z"/>
		<line class="st4" x1="108.36" y1="41.5" x2="108.36" y2="62.74"/>
		<line class="st4" x1="104.83" y1="41.5" x2="104.83" y2="62.74"/>
		<line class="st4" x1="116.79" y1="41.5" x2="116.79" y2="62.74"/>
		<line class="st4" x1="120.33" y1="41.5" x2="120.33" y2="62.74"/>
		<g>
			<polygon class="st5" points="117.49,39.43 119.01,39.04 121.08,40.23 122.47,46.82 117.57,47.83 116.42,41.4 			"/>
			<circle class="st6" cx="118.62" cy="40.84" r="0.63"/>
			<path class="st7" d="M118.67,40.84c-1.27-0.94-2.45-4.19-0.57-5.18"/>
		</g>
	</g>
	<g>
		<path class="st3" d="M132.33,56.64l1.65,0.1l-0.1,1.65l-1.65-0.1L132.33,56.64z"/>
		<g>
			<path class="st8" d="M123.47,42.96L123.47,42.96c-0.43-2.01,0.36-3.58,1.75-4.83c1.41-1.28,3.36-2.18,5.04-2.73l3.87-0.82
				c1.76-0.17,3.9-0.14,5.71,0.45c1.78,0.59,3.13,1.69,3.56,3.71l0,0c0.18,0.86,0.15,1.5,0.03,2.01c-0.12,0.53-0.34,0.97-0.61,1.47
				c-0.04,0.07-0.08,0.15-0.12,0.23c-0.52,0.94-1.18,2.12-0.81,3.87l0,0c0.25,1.22,0.85,2.12,1.56,2.89
				c0.35,0.38,0.73,0.74,1.11,1.09c0.08,0.07,0.16,0.15,0.24,0.21c0.3,0.28,0.62,0.57,0.93,0.87c1.52,1.49,3.17,3.54,4.08,7.79
				l0.9-0.19l-0.9,0.19c0.77,3.63-0.33,6.13-2.24,7.92c-1.98,1.84-4.9,2.97-7.81,3.58c-2.9,0.62-6.03,0.76-8.59-0.12
				c-2.47-0.85-4.49-2.7-5.26-6.32l0,0c-0.9-4.25-0.22-6.8,0.57-8.77c0.16-0.41,0.33-0.79,0.49-1.18c0.04-0.1,0.08-0.2,0.13-0.3
				c0.21-0.48,0.41-0.95,0.58-1.45c0.34-0.99,0.52-2.06,0.25-3.28c-0.37-1.76-1.45-2.57-2.31-3.21c-0.07-0.06-0.14-0.11-0.21-0.16
				c-0.45-0.35-0.83-0.67-1.15-1.09C123.94,44.4,123.65,43.82,123.47,42.96z"/>
			<path class="st0" d="M138.34,42.73c0,2.07-1.68,3.75-3.75,3.75s-4.69-1.68-4.69-3.75s2.61-3.75,4.69-3.75
				C136.67,38.98,138.34,40.66,138.34,42.73z"/>
		</g>
		<g>
			<g id="XMLID_00000146474121927611907600000015336942169119920568_">
				<g>
					<path class="st6" d="M138.82,41.78c0.58,2.74-1.18,5.44-3.91,6.03s-5.44-1.18-6.03-3.91c-0.35-1.61,0.14-3.21,1.15-4.37
						l-4.13-19.49l-1.21-0.78l-1.56-7.37l7.95-1.69l1.56,7.37l-0.78,1.21l4.13,19.49C137.39,38.9,138.48,40.16,138.82,41.78z
						 M134.49,45.82c1.64-0.35,2.7-1.97,2.35-3.62c-0.35-1.64-1.97-2.7-3.62-2.35c-1.64,0.35-2.7,1.97-2.35,3.62
						C131.22,45.11,132.84,46.16,134.49,45.82z M133.81,37.75l-4.11-19.4l0.78-1.2l-0.96-4.56l-3.98,0.84l0.97,4.56l1.21,0.78
						l4.11,19.4c0.3-0.13,0.63-0.24,0.97-0.31C133.14,37.79,133.49,37.75,133.81,37.75z"/>
					<path class="st0" d="M129.7,18.35l4.11,19.4c-0.34,0-0.67,0.04-1.01,0.11c-0.34,0.07-0.67,0.18-0.97,0.31l-4.11-19.4
						l-1.21-0.78l-0.97-4.56l3.98-0.84l0.96,4.56L129.7,18.35z"/>
				</g>
			</g>
		</g>
		<path class="st3" d="M133.25,59.58l7.95-1.69l-0.42-1.99l-7.95,1.69L133.25,59.58z M143.61,59.46l-11.93,2.53l-1.27-5.96
			l11.93-2.53L143.61,59.46z"/>
	</g>
</g>
<path class="st9" d="M94.59,35.86l2.18-4.9c0,0,13.34,6.74,13.86,13.44c0.52,6.7,0.31,39.85,0.31,39.85l-4.92,0.1L94.59,35.86z"/>
<g>
	<path class="st0" d="M48.96,41.63l-0.18,8.13l2.35,1.81l28.2-0.18c0,0-1.26,11.2,5.78,15.17c0.18,7.04,0.18,17.16,0.18,17.16h21.31
		V45.97c0,0-3.61-9.21-9.75-11.38c0-7.22,0-12.1,0-12.1s-0.9-4.01-6.5-3.11C84.75,20.28,48.96,41.63,48.96,41.63z"/>
	<path class="st10" d="M83.19,43.63c0,0-1.3-4.73,1.67-6.44c2.97-1.7,6.51,1.7,6.51,1.7l2.6,2.42V19.92H49.14v29.39h39.62
		L83.19,43.63z"/>
	<polygon class="st10" points="93.29,49.31 93.97,49.31 93.97,49.03 	"/>
	<path class="st6" d="M51.77,50.35c-1.23,0-1.87-0.65-1.88-1.91c0-0.35,0-1.03,0-1.9c0-0.02,0-0.15,0-0.37c0-2.31,0-5.69,0-7.96
		c0-0.05,0-0.09,0-0.14c0-0.36,0-0.7,0-0.99c0,0,0-0.01,0-0.01c0-0.11,0-0.21,0-0.32c0.01-0.76,0-1.53,0-2.28c0-0.86,0-1.74,0-2.6
		c0-5.06,0,6.47,0,4.61c0-0.3,0-0.54,0-0.79c0-4.33,0-8.66,0-12.99c0-1.56,0.59-2.14,2.15-2.14c19.85,0,21.13,0,40.98,0
		c1.55,0,2.17,0.6,2.17,2.14c0,4.33,0,8.66,0,12.99c0,0.25,0,0.49,0,0.85c0,0-0.05-7.72-0.05-4.66v3.61l-0.01,0
		c0,1.9-0.02,3.87-0.02,5.68c-0.11,0.08-0.21,0.16-0.32,0.24c-1.52-1.63-3.02-3.29-4.58-4.89c-1.19-1.22-2.61-1.83-4.2-1.79
		c-0.35,0.01-0.72,0.05-1.09,0.13c-2.2,0.44-3.73,1.79-4.4,3.92c-0.67,2.13-0.25,4.11,1.31,5.75c1.63,1.72,3.32,3.39,4.98,5.08
		c0.19,0.2,0.38,0.41,0.63,0.68c-0.25,0.03-0.33,0.04-0.41,0.04C69.09,50.35,69.72,50.36,51.77,50.35z M78.16,52.84
		c0,1.48,0,2.88,0,4.28c-0.01,4.1,1.68,7.27,5.16,9.49c0.32,0.2,0.59,0.73,0.6,1.12c0.05,1.66,0.04,11.73,0.03,16.35h2.48
		c-0.01-4.9-0.03-14.48,0.02-16.16c0.04-1.6-0.56-2.72-1.95-3.54c-2.13-1.27-3.46-3.19-3.73-5.66c-0.19-1.75-0.1-3.52-0.13-5.28
		c0-0.18,0.05-0.36,0.08-0.54c2.41,0,4.77,0,7.24,0c0,0.64-0.02,1.24,0,1.83c0.07,2,1.28,3.66,3.08,4.01
		c1.07,0.2,2.19,0.17,3.29,0.14c0.71-0.02,1.19-0.63,1.16-1.27c-0.03-0.65-0.54-1.13-1.26-1.16c-0.63-0.03-1.27,0-1.9-0.01
		c-1.25-0.04-1.85-0.64-1.88-1.91c-0.02-0.77-0.05-1.55,0-2.32c0.12-1.7-0.5-3.02-1.72-4.19c-1.73-1.66-3.39-3.39-5.06-5.12
		c-1.01-1.04-1.22-2.5-0.62-3.75c0.6-1.26,1.87-1.97,3.31-1.87c0.97,0.07,1.69,0.59,2.35,1.25c3.03,2.98,6.06,5.95,9.1,8.91
		c0.71,0.69,1.41,0.74,1.96,0.18c0.55-0.56,0.48-1.25-0.22-1.95c-0.51-0.51-1.03-0.99-1.53-1.51c-0.16-0.17-0.33-0.41-0.33-0.61
		c-0.02-2.17-0.01-4.33-0.01-6.66c1,0.71,1.84,1.36,2.73,1.94c3.34,2.21,4.87,5.29,4.8,9.3c-0.09,4.93-0.03,16.25-0.02,21.54
		c0,0,0,0,0,0c-0.01,0.19,0,0.38,0,0.57c0,1.03,0,9.41,0,13.85h2.49c0-3.86,0-10.55,0-10.78c0-1.02,0.01-2.05-0.01-3.07
		c0-0.02,0-0.04,0-0.06c0-5.54,0.06-17.85-0.03-23.39c-0.06-3.84-1.78-6.94-4.82-9.28c-1.46-1.13-2.98-2.19-4.5-3.24
		c-0.49-0.34-0.65-0.71-0.65-1.29c0.02-8.96,0.02-1.53,0.01-10.49c0-2.55-1.78-4.39-4.27-4.39c-20.1-0.01-21.63-0.01-41.73,0
		c-2.44,0-4.26,1.79-4.26,4.22c-0.01,10.12-0.01,3.85,0,13.98c0,0.04,0,0.08,0,0.12c-0.01,2.39,0,10.67,0.01,12.36
		c0,0.27,0.03,0.55,0.1,0.82c0.5,2.06,2.12,3.24,4.48,3.24c14.53,0,10.49,0,25.02,0C77.37,52.84,77.72,52.84,78.16,52.84z"/>
	<path class="st0" d="M55.76,38.6c0.11,0.02,0.16,0.07,0.15,0.17v0.16c0,0.04,0,0.09-0.01,0.16c0,0.07-0.01,0.12-0.02,0.15
		c-0.03,0.35-0.07,0.88-0.14,1.6c-0.06,0.72-0.11,1.26-0.15,1.63l-0.17,1.8c-0.02,0.21-0.03,0.36-0.04,0.46
		c-0.01,0.09-0.02,0.22-0.03,0.39c-0.01,0.17-0.03,0.3-0.03,0.38c-0.01,0.04-0.02,0.09-0.02,0.17c-0.01,0.08-0.02,0.13-0.02,0.17
		c-0.01,0.02-0.02,0.06-0.02,0.11s-0.01,0.08-0.01,0.1c0,0.07-0.04,0.11-0.12,0.11h-0.02h-1.94c-0.09,0-0.14-0.04-0.14-0.11
		c0-0.02,0-0.06-0.01-0.1s-0.02-0.08-0.02-0.11c-0.01-0.04-0.02-0.09-0.02-0.17c-0.01-0.08-0.02-0.13-0.02-0.17
		c-0.01-0.08-0.02-0.21-0.03-0.38c-0.02-0.17-0.03-0.3-0.03-0.39c-0.01-0.05-0.02-0.13-0.03-0.23c-0.01-0.1-0.02-0.18-0.02-0.23
		l-0.16-1.8c-0.05-0.65-0.15-1.73-0.29-3.23c-0.01-0.06-0.01-0.16-0.01-0.31c-0.01-0.04-0.01-0.1-0.01-0.16
		c0-0.1,0.05-0.15,0.15-0.17c0.12-0.01,0.46-0.01,1.04-0.01c0.11-0.01,0.17,0.04,0.19,0.17c0.01,0.18,0.03,0.32,0.04,0.42
		c0.01,0.1,0.02,0.25,0.03,0.45c0.05,0.5,0.16,1.89,0.32,4.18c0.11-1.59,0.22-2.99,0.32-4.18c0.02-0.21,0.03-0.36,0.04-0.45
		c0-0.05,0-0.12,0.01-0.21c0.01-0.09,0.01-0.16,0.02-0.21c0.02-0.12,0.08-0.18,0.19-0.17C55.31,38.58,55.65,38.59,55.76,38.6z"/>
	<path class="st0" d="M57.67,42.33v0.42v0.98c0.02,0.6,0.02,1.03,0.02,1.27c0.01,0.11,0.07,0.18,0.18,0.21
		c0.1,0.04,0.19,0.02,0.27-0.08c0.05-0.09,0.07-0.16,0.07-0.21c0.01-0.13,0.01-0.33,0.01-0.61V44.2c0-0.07,0-0.18,0.01-0.33
		c0-0.15,0.01-0.26,0.01-0.33c0-0.21,0-0.53,0.01-0.95c0-0.42,0.01-0.73,0.01-0.95c0-0.37-0.01-0.89-0.02-1.56l-0.01-0.35
		c0-0.12-0.07-0.19-0.22-0.21c-0.13-0.03-0.21,0.02-0.24,0.14c-0.03,0.09-0.05,0.18-0.05,0.27c0,0.68,0,1.17-0.01,1.5v0.64
		c-0.01,0.05-0.01,0.11-0.01,0.19V42.33z M59.27,39.21c0.12,0.21,0.19,0.44,0.22,0.69c0.05,0.44,0.08,1.19,0.08,2.26
		c-0.01,0.23-0.01,0.58-0.01,1.05c0.01,0.19,0,0.51-0.01,0.97c-0.02,0.46-0.06,0.81-0.12,1.05c-0.15,0.48-0.46,0.78-0.95,0.9
		c-0.18,0.04-0.37,0.07-0.56,0.07c-0.1,0-0.26-0.02-0.46-0.04c-0.53-0.1-0.86-0.42-0.99-0.95c-0.07-0.28-0.11-0.65-0.11-1.1v-0.99
		c0.01-0.27,0.01-0.46,0.01-0.59v-0.46v-1.12c0.02-0.45,0.04-0.78,0.07-1c0.07-0.41,0.22-0.74,0.45-0.99
		c0.17-0.16,0.36-0.27,0.57-0.32c0.34-0.08,0.67-0.09,0.98-0.02C58.82,38.68,59.1,38.88,59.27,39.21z"/>
	<path class="st0" d="M62.04,38.54h1.04c0.03,0,0.07,0.02,0.11,0.04c0.03,0.03,0.05,0.07,0.05,0.12v0.02
		c-0.01,1.75-0.01,3.23-0.01,4.45c0.01,0.22,0,0.53-0.01,0.93v0.06c-0.02,0.47-0.06,0.82-0.12,1.06c-0.15,0.48-0.46,0.78-0.95,0.9
		c-0.18,0.04-0.37,0.07-0.56,0.07c-0.1,0-0.26-0.02-0.46-0.04c-0.53-0.1-0.86-0.42-0.99-0.95c-0.07-0.28-0.11-0.65-0.11-1.1V43.1
		c0.01-0.27,0.01-0.46,0.01-0.6V40.6v-1.9c0-0.11,0.05-0.17,0.15-0.17h1c0.03,0,0.07,0.02,0.11,0.04c0.03,0.04,0.05,0.08,0.05,0.12
		c0,0.75,0,1.38-0.01,1.9v1.19v0.39v0.1v0.04v0.42v0.98c0.02,0.6,0.02,1.02,0.02,1.27c0.01,0.11,0.07,0.18,0.18,0.21
		c0.1,0.04,0.19,0.02,0.27-0.08c0.05-0.09,0.07-0.16,0.07-0.21c0.01-0.13,0.01-0.33,0.01-0.61v-0.11c0-0.07,0-0.18,0.01-0.33
		c0-0.15,0.01-0.26,0.01-0.33c0-0.21,0-0.52,0.01-0.95c0-0.43,0.01-0.74,0.01-0.95v-1.25v-1.69C61.89,38.6,61.94,38.54,62.04,38.54z
		"/>
	<path class="st0" d="M65.95,43.44H67c0.05,0,0.08,0.02,0.12,0.06s0.06,0.08,0.06,0.12c0,0.27,0,0.47-0.01,0.58
		c-0.02,0.43-0.1,0.81-0.25,1.13c-0.21,0.46-0.57,0.73-1.06,0.82c-0.16,0.02-0.33,0.03-0.5,0.03c-0.18,0-0.3-0.01-0.39-0.02
		c-0.4-0.04-0.71-0.27-0.95-0.66c-0.12-0.2-0.21-0.48-0.27-0.86c-0.05-0.28-0.08-0.71-0.08-1.28v-0.34v-0.19
		c-0.01-0.34-0.01-0.87-0.01-1.58c0.01-0.51,0.03-0.89,0.06-1.12c0.05-0.4,0.17-0.74,0.36-1.03c0.21-0.31,0.49-0.49,0.85-0.53
		c0.3-0.04,0.61-0.05,0.94-0.03c0.37,0.02,0.67,0.21,0.9,0.55c0.15,0.21,0.25,0.48,0.3,0.79c0.07,0.33,0.1,0.73,0.1,1.21v0.15
		c0,0.12-0.06,0.18-0.18,0.18h-1.06c-0.04,0-0.08-0.02-0.12-0.05c-0.03-0.03-0.05-0.07-0.05-0.13v-0.85
		c-0.01-0.07-0.02-0.16-0.03-0.29c-0.01-0.12-0.02-0.22-0.02-0.28c-0.02-0.1-0.07-0.17-0.15-0.21c-0.12-0.05-0.24-0.04-0.33,0.04
		c-0.09,0.08-0.13,0.19-0.13,0.33c0,0.22,0,0.6,0.01,1.15c0,0.54,0.01,1,0.01,1.35c0.01,0.21,0.01,0.52,0.02,0.96
		c0,0.43,0.01,0.76,0.01,0.99c0,0.09,0.01,0.21,0.02,0.37c0.01,0.1,0.05,0.17,0.12,0.21c0.05,0.02,0.13,0.02,0.23,0.02
		c0.12,0,0.18-0.06,0.2-0.17c0.04-0.26,0.06-0.41,0.06-0.46v-0.83C65.78,43.5,65.83,43.44,65.95,43.44z"/>
	<path class="st0" d="M71.49,38.75c0,0.02,0,0.03,0.01,0.06c0,0.03,0.01,0.05,0.01,0.06l0.01,0.14c0,0.1,0,0.14-0.01,0.14
		c0,1.01,0,1.89-0.01,2.62l-0.01,1.88v0.32c0,0.08,0,0.32-0.01,0.72c0,0.4-0.01,0.64-0.01,0.73c0,0.04,0,0.09-0.01,0.17
		c0,0.08-0.01,0.13-0.01,0.17c-0.01,0.05-0.01,0.12-0.01,0.21V46c0,0.01,0,0.02-0.01,0.02v0.01v0.02c-0.01,0-0.01,0-0.01,0.01
		l-0.01,0.01l-0.01,0.01c-0.01,0.01-0.02,0.01-0.02,0.01l-0.01,0.01h-0.01l-0.02,0.01h-0.01h-0.02h-0.1h-0.95
		c-0.08,0-0.13-0.02-0.15-0.07v-0.01c-0.01-0.01-0.01-0.01-0.01-0.02c0-0.01,0-0.03-0.01-0.03v-0.01v-0.02
		c0.01-0.34,0.01-1.08,0.01-2.22c0-0.02-0.01-0.03-0.03-0.03l-1.01-0.01c-0.02,0-0.03,0-0.03,0.01c-0.01,0.01-0.01,0.02-0.01,0.02
		v0.24v0.99v0.47c0,0.04,0,0.09-0.01,0.17c0,0.08-0.01,0.13-0.01,0.17c-0.01,0.05-0.01,0.12-0.01,0.21h-0.01v0.03v0.01
		c0,0.01,0,0.02-0.01,0.02v0.01l-0.01,0.01c-0.01,0.01-0.02,0.01-0.02,0.01l-0.01,0.01c-0.01,0.01-0.02,0.01-0.02,0.01h-0.01
		l-0.01,0.01h-0.01h-0.02h-0.1H67.8h-0.02c-0.07,0-0.12-0.02-0.13-0.07c-0.02-0.03-0.02-0.05-0.02-0.07v-0.01v-0.02
		c0-1.03,0-1.69,0.01-1.97v-0.87v-0.98V41.7v-0.01c0-0.01,0-0.12,0.01-0.34c0-0.22,0.01-0.49,0.01-0.81c0-0.32,0-0.62,0-0.89v-0.2
		v-0.02v-0.18l0.01-0.06v-0.41v-0.03v-0.01c0-0.02,0-0.03,0.01-0.03c0-0.01,0-0.02,0.01-0.02v-0.01l0.01-0.01v-0.01l0.01-0.01
		c0.01,0,0.01,0,0.01-0.01c0,0,0-0.01,0.01-0.01c0-0.01,0-0.01,0.01-0.01c0.01-0.01,0.02-0.01,0.02-0.01h0.01
		c0-0.01,0.01-0.01,0.02-0.01h0.01h0.02h0.01c0.36,0,0.63,0,0.82-0.01h0.22h0.01c0.02,0,0.03,0,0.03,0.01
		c0.03,0,0.06,0.01,0.08,0.03L69,38.65c0.01,0.01,0.01,0.02,0.01,0.02c0.01,0.01,0.01,0.02,0.01,0.03c0.01,0,0.01,0,0.01,0.01v0.03
		c0,0.05,0,0.09,0.01,0.12v0.29v0.02c0,0.38,0,0.85-0.01,1.39c-0.01,0.54-0.01,1.01-0.01,1.39v0.31c0,0.03,0.01,0.04,0.03,0.04h0.35
		h0.12c0.01,0.01,0.02,0.01,0.04,0.01h0.5c0.01,0,0.02-0.01,0.03-0.02v-0.6v-0.01c0-0.01,0-0.12,0.01-0.34
		c0-0.22,0.01-0.49,0.01-0.81c0-0.32,0-0.62,0-0.89c0-0.05,0-0.13,0.01-0.23c0-0.1,0.01-0.18,0.01-0.22v-0.23v-0.18v-0.03v-0.01
		c0.01-0.01,0.01-0.02,0.01-0.03l0.01-0.02v-0.01l0.02-0.02v-0.01c0.01,0,0.01,0,0.01-0.01c0,0,0-0.01,0.01-0.01l0.01-0.01
		l0.01-0.01h0.01h0.01c0.01-0.01,0.02-0.01,0.02-0.01h0.02h0.01h0.01c0.36,0,0.63,0,0.82-0.01h0.22h0.01c0.02,0,0.04,0,0.05,0.01
		c0.02,0,0.04,0.01,0.07,0.03h0.01l0.01,0.01c0,0.01,0,0.02,0,0.02h0.01c0,0.02,0,0.03,0.01,0.03v0.01L71.49,38.75L71.49,38.75z"/>
	<path class="st0" d="M74.77,45.02c0.11,0,0.18,0.01,0.21,0.04c0.03,0.03,0.04,0.09,0.04,0.2v0.25c-0.01,0.16-0.01,0.33,0,0.5
		c0,0.04-0.02,0.09-0.04,0.13c-0.03,0.02-0.07,0.03-0.13,0.03h-2.73c-0.1-0.01-0.15-0.07-0.15-0.18v-0.83v-0.82v-0.68v-0.56
		l-0.01-1.27v-2.96c0-0.17,0.02-0.27,0.06-0.3c0.02-0.02,0.08-0.03,0.18-0.03h0.1c0.2,0,0.5,0,0.9,0.01c0.4,0,0.7,0.01,0.89,0.01
		h0.46c0.02,0,0.03,0,0.06,0.01c0.03,0,0.04,0.01,0.05,0.01h0.1c0.1,0,0.15,0.05,0.15,0.15v0.84c0,0.05-0.02,0.09-0.04,0.11
		c-0.02,0.02-0.05,0.03-0.1,0.03h-0.5h-0.86h-0.06v0.04v2.41v0.03h0.04h0.85h0.16h0.06h0.06c0.03,0,0.07,0.02,0.11,0.05
		c0.02,0.02,0.03,0.06,0.03,0.12c0.01,0.18,0.01,0.52,0.01,1.03c0,0.04-0.01,0.08-0.03,0.11c-0.02,0.02-0.06,0.03-0.12,0.03h-0.63
		h-0.22h-0.3h-0.02v0.02v1.43V45h0.03c0.12,0,0.34,0,0.65,0.01C74.33,45.02,74.58,45.02,74.77,45.02z"/>
	<path class="st0" d="M76.83,40.81v0.01v0.8v1.48c0,0.01,0,0.02,0.01,0.02c0,0.01,0.01,0.02,0.01,0.02h0.08
		c0.14,0,0.24-0.01,0.3-0.02c0.14-0.04,0.21-0.16,0.21-0.35c0.01-0.32,0.01-1.23,0.01-2.73c-0.02-0.22-0.1-0.35-0.27-0.4
		c-0.02-0.01-0.08-0.02-0.2-0.03h-0.1h-0.04c-0.01,0.01-0.01,0.03-0.01,0.06v0.42C76.82,40.29,76.83,40.53,76.83,40.81z
		 M78.56,39.32c0.12,0.26,0.19,0.55,0.2,0.88c0.02,0.34,0.03,1.08,0.03,2.2c-0.02,0.3-0.07,0.55-0.15,0.74
		c-0.12,0.28-0.32,0.45-0.57,0.52c0.13,0.06,0.26,0.17,0.38,0.33c0.12,0.16,0.19,0.37,0.2,0.64c0,0.09,0,0.16,0.01,0.23
		c0,0.06,0.01,0.14,0.02,0.24c0,0.02,0.02,0.23,0.07,0.64c0.01,0.05,0.02,0.14,0.03,0.25c0,0.07-0.01,0.12-0.03,0.14
		c-0.02,0.03-0.07,0.04-0.14,0.04h-0.35h-0.63c-0.11,0-0.17-0.05-0.19-0.15l-0.03-0.36c0-0.02-0.01-0.12-0.02-0.28
		c-0.02-0.17-0.03-0.31-0.04-0.45c-0.01-0.13-0.03-0.27-0.05-0.4c-0.02-0.14-0.05-0.22-0.08-0.26c-0.04-0.06-0.1-0.09-0.19-0.09
		h-0.02c-0.06,0-0.1,0-0.13-0.01h-0.03c-0.01,0.01-0.01,0.02-0.01,0.04l0.01,0.23v0.19v1.21V46c0,0.07-0.01,0.12-0.03,0.14
		s-0.07,0.03-0.13,0.03c-0.15,0-0.33,0-0.55-0.01c-0.22,0-0.37-0.01-0.46-0.01c-0.08,0-0.13-0.01-0.16-0.04
		c-0.03-0.03-0.04-0.08-0.04-0.16v-1.4v0.15v-0.8v-5.17c0-0.08,0.01-0.14,0.04-0.17c0.02-0.02,0.07-0.03,0.15-0.03h0.14h0.29h1.24
		c0.27,0,0.5,0.05,0.68,0.14C78.24,38.81,78.43,39.02,78.56,39.32z"/>
</g>
</svg>
