<svg width="100" height="66" viewBox="0 0 100 66" fill="none" xmlns="http://www.w3.org/2000/svg">
<path d="M0 0V20.0683V23.413V65.2218H100V23.413V20.0683V0H0ZM96.6667 61.8771H53.3333H50H3.33333V23.413H50V26.7577H53.3333V23.413H96.6667V61.8771ZM3.33333 20.0683V3.34471H96.6667V20.0683H3.33333Z" fill="#848282"/>
<path d="M33.3332 26.7581H6.6665V40.1369H33.3332V26.7581ZM29.9998 36.7922H9.99984V30.1028H29.9998V36.7922Z" fill="#FDBE15"/>
<path d="M43.3337 45.1536H18.3337C17.4137 45.1536 16.667 45.9028 16.667 46.8259C16.667 47.7491 17.4137 48.4983 18.3337 48.4983H43.3337C44.2537 48.4983 45.0003 47.7491 45.0003 46.8259C45.0003 45.9028 44.2537 45.1536 43.3337 45.1536Z" fill="#848282"/>
<path d="M39.9998 53.5151H13.3332C12.4132 53.5151 11.6665 54.2644 11.6665 55.1875C11.6665 56.1106 12.4132 56.8598 13.3332 56.8598H39.9998C40.9198 56.8598 41.6665 56.1106 41.6665 55.1875C41.6665 54.2644 40.9198 53.5151 39.9998 53.5151Z" fill="#848282"/>
<path d="M83.3328 55.188H66.6662C65.7462 55.188 64.9995 55.9372 64.9995 56.8603C64.9995 57.7835 65.7462 58.5327 66.6662 58.5327H83.3328C84.2545 58.5327 84.9995 57.7835 84.9995 56.8603C84.9995 55.9372 84.2545 55.188 83.3328 55.188Z" fill="#848282"/>
<path d="M53.3333 35.1196H50V40.1367H53.3333V35.1196Z" fill="#848282"/>
<path d="M53.3333 48.4983H50V53.5154H53.3333V48.4983Z" fill="#848282"/>
<path d="M53.3333 41.8088H50V46.8259H53.3333V41.8088Z" fill="#848282"/>
<path d="M53.3333 55.188H50V60.2051H53.3333V55.188Z" fill="#848282"/>
<path d="M53.3333 28.4299H50V33.447H53.3333V28.4299Z" fill="#848282"/>
<path d="M58.9996 46.4915L65.6663 51.5086C65.7346 51.5604 65.8129 51.5838 65.8846 51.624C65.9429 51.6557 65.9963 51.6892 66.0563 51.7143C66.2529 51.7929 66.4579 51.8447 66.6646 51.8447C66.6646 51.8447 66.6646 51.8447 66.6663 51.8447H66.6679C66.8946 51.8447 67.1146 51.7845 67.3279 51.6908C67.3929 51.6624 67.4479 51.6206 67.5096 51.5838C67.5929 51.5336 67.6829 51.5019 67.7579 51.4367L81.6663 39.3405V48.4983C81.6663 49.4215 82.4113 50.1707 83.3329 50.1707C84.2546 50.1707 84.9996 49.4215 84.9996 48.4983V36.4406L92.7579 29.6944C93.4529 29.089 93.5279 28.032 92.9263 27.3347C92.3229 26.634 91.2696 26.5637 90.5746 27.1658L83.3479 33.4505C83.3429 33.4505 83.3379 33.4471 83.3329 33.4471H68.3329C67.4129 33.4471 66.6663 34.1963 66.6663 35.1195C66.6663 36.0426 67.4129 36.7918 68.3329 36.7918H79.5063L66.5913 48.0234L60.9996 43.8157C60.2613 43.2605 59.2179 43.4127 58.6663 44.1502C58.1146 44.8894 58.2629 45.9379 58.9996 46.4915Z" fill="#848282"/>
<path d="M8.33317 10.0342H26.6665C27.5865 10.0342 28.3332 9.28495 28.3332 8.36181C28.3332 7.43867 27.5865 6.68945 26.6665 6.68945H8.33317C7.41317 6.68945 6.6665 7.43867 6.6665 8.36181C6.6665 9.28495 7.41317 10.0342 8.33317 10.0342Z" fill="#848282"/>
<path d="M16.6665 13.3789H8.33317C7.41317 13.3789 6.6665 14.1281 6.6665 15.0513C6.6665 15.9744 7.41317 16.7236 8.33317 16.7236H16.6665C17.5865 16.7236 18.3332 15.9744 18.3332 15.0513C18.3332 14.1281 17.5865 13.3789 16.6665 13.3789Z" fill="#848282"/>
<path d="M51.667 13.3789H43.3337C42.4137 13.3789 41.667 14.1281 41.667 15.0513C41.667 15.9744 42.4137 16.7236 43.3337 16.7236H51.667C52.587 16.7236 53.3337 15.9744 53.3337 15.0513C53.3337 14.1281 52.587 13.3789 51.667 13.3789Z" fill="#848282"/>
<path d="M36.667 13.3789H23.3337C22.4137 13.3789 21.667 14.1281 21.667 15.0513C21.667 15.9744 22.4137 16.7236 23.3337 16.7236H36.667C37.587 16.7236 38.3337 15.9744 38.3337 15.0513C38.3337 14.1281 37.587 13.3789 36.667 13.3789Z" fill="#848282"/>
<path d="M58.3337 6.68945H33.3337C32.4137 6.68945 31.667 7.43867 31.667 8.36181C31.667 9.28495 32.4137 10.0342 33.3337 10.0342H58.3337C59.2537 10.0342 60.0003 9.28495 60.0003 8.36181C60.0003 7.43867 59.2537 6.68945 58.3337 6.68945Z" fill="#848282"/>
</svg>
