<svg width="57" height="75" viewBox="0 0 57 75" fill="none" xmlns="http://www.w3.org/2000/svg">
<path d="M26.1763 58.9052L38.965 64.3013L42.8863 55.0065L30.0988 49.6116L26.1763 58.9052ZM39.6125 56.339L37.6338 61.0264L29.4513 57.5739L31.43 52.8865L39.6125 56.339Z" fill="#848282"/>
<path d="M32.5 27.4994C32.5 30.3031 34.1475 32.4993 36.25 32.4993C38.3525 32.4993 40 30.3031 40 27.4994C40 26.5769 39.8075 25.7332 39.4938 24.9995H40C40.69 24.9995 41.25 24.4395 41.25 23.7495C41.25 23.0595 40.69 22.4995 40 22.4995H8.75C8.06 22.4995 7.5 23.0595 7.5 23.7495C7.5 24.4395 8.06 24.9995 8.75 24.9995H33.0063C32.6925 25.7332 32.5 26.5769 32.5 27.4994ZM37.5 27.4994C37.5 29.0257 36.76 29.9994 36.25 29.9994C35.74 29.9994 35 29.0257 35 27.4994C35 25.9732 35.74 24.9995 36.25 24.9995C36.7613 24.9995 37.5 25.9732 37.5 27.4994Z" fill="#FDBE15"/>
<path d="M50 36.2494H48.75V21.0721C48.75 17.7247 46.025 14.9997 42.6775 14.9997H31.25V7.49987H32.5C34.5675 7.49987 36.25 5.8174 36.25 3.74994C36.25 1.68247 34.5675 0 32.5 0H17.5C15.4325 0 13.75 1.68247 13.75 3.74994C13.75 5.8174 15.4325 7.49987 17.5 7.49987H18.75V14.9997H6.0725C2.72375 14.9997 0 17.7235 0 21.0721V65.1764C0 67.7026 1.55125 69.8688 3.75 70.7838V71.6438C3.75 73.4938 5.25625 75 7.10625 75H14.1438C15.9938 75 17.5 73.4938 17.5 71.6438V71.2488H31.25V71.6426C31.25 73.4925 32.7563 74.9987 34.6063 74.9987H41.6437C43.4937 74.9987 45 73.4925 45 71.6426V70.7826C47.1987 69.8688 48.75 67.7014 48.75 65.1764V48.7492H50C53.4462 48.7492 56.25 45.9455 56.25 42.4993C56.25 39.0531 53.4462 36.2494 50 36.2494ZM21.25 4.99992V2.49996H23.75V4.99992H21.25ZM26.25 2.49996H28.75V4.99992H26.25V2.49996ZM33.75 3.74994C33.75 4.43868 33.1887 4.99992 32.5 4.99992H31.25V2.49996H32.5C33.1887 2.49996 33.75 3.0612 33.75 3.74994ZM16.25 3.74994C16.25 3.0612 16.8113 2.49996 17.5 2.49996H18.75V4.99992H17.5C16.8113 4.99992 16.25 4.43868 16.25 3.74994ZM21.25 7.49987H28.75V14.9997H21.25V7.49987ZM15 71.6426C15 72.115 14.6163 72.4988 14.1438 72.4988H7.10625C6.63375 72.4988 6.25 72.115 6.25 71.6426V71.2488H15V71.6426ZM42.5 71.6426C42.5 72.115 42.1162 72.4988 41.6437 72.4988H34.6063C34.1338 72.4988 33.75 72.115 33.75 71.6426V71.2488H42.5C42.5 71.2488 42.5 71.6426 42.5 71.6426ZM46.25 65.1764C46.25 67.1464 44.6475 68.7489 42.6775 68.7489H31.25H17.5H6.0725C4.1025 68.7489 2.5 67.1464 2.5 65.1764V21.0721C2.5 19.1022 4.1025 17.4997 6.0725 17.4997H18.75H31.25H42.6775C44.6475 17.4997 46.25 19.1022 46.25 21.0721V36.2494V48.7492V65.1764V65.1764ZM50 46.2492H48.75V38.7494H50C52.0675 38.7494 53.75 40.4318 53.75 42.4993C53.75 44.5668 52.0675 46.2492 50 46.2492Z" fill="#848282"/>
</svg>
